# xmcd
#
# Track frame offsets:
#	150
#	23656
#	45333
#	74085
#	97135
#	117719
#	144306
#	160129
#	177063
#	207063
#	231635
#	271644
#	291673
#	311775
#
# Disc length: 4401 seconds
#
# Revision: 1
# Processed by: cddbd v1.5.1PL2 Copyright (c) Steve Scherf et al.
# Submitted via: audiograbber 1.83.01
#
DISCID=d3112f0e
DTITLE=Bugs Henderson and The Shuffle Kings - Electric Snow "The Best Of" Cd1
DYEAR=2006
DGENRE=Blues
TTITLE0=Honest I Do
TTITLE1=She Feels Good
TTITLE2=Rocket In My Pocket
TTITLE3=Love Somebody
TTITLE4=Sweet And Mean
TTITLE5=Blue Casino
TTITLE6=Lucille
TTITLE7=Ain't Your Daddy's Business
TTITLE8=Starvation Box
TTITLE9=Armadillo Shake
TTITLE10=Got My Mojo Working
TTITLE11=Look What Love Can Do
TTITLE12=Ticket To Ride
TTITLE13=The Vent
EXTD=
EXTT0=
EXTT1=
EXTT2=
EXTT3=
EXTT4=
EXTT5=
EXTT6=
EXTT7=
EXTT8=
EXTT9=
EXTT10=
EXTT11=
EXTT12=
EXTT13=
PLAYORDER=
